<svg width="23" height="23" viewBox="0 0 23 23" fill="none" xmlns="http://www.w3.org/2000/svg">
<path d="M20.4444 3.83337H2.55555C2.21666 3.83337 1.89165 3.968 1.65202 4.20763C1.41239 4.44726 1.27777 4.77226 1.27777 5.11115V17.8889C1.27777 18.2278 1.41239 18.5528 1.65202 18.7925C1.89165 19.0321 2.21666 19.1667 2.55555 19.1667H20.4444C20.7833 19.1667 21.1083 19.0321 21.348 18.7925C21.5876 18.5528 21.7222 18.2278 21.7222 17.8889V5.11115C21.7222 4.77226 21.5876 4.44726 21.348 4.20763C21.1083 3.968 20.7833 3.83337 20.4444 3.83337V3.83337ZM19.4605 17.8889H3.6161L8.08833 13.2634L7.16833 12.3753L2.55555 17.1478V6.08226L10.4969 13.9853C10.7363 14.2233 11.0602 14.3569 11.3978 14.3569C11.7353 14.3569 12.0592 14.2233 12.2986 13.9853L20.4444 5.88421V17.0648L15.7422 12.3625L14.8414 13.2634L19.4605 17.8889ZM3.39249 5.11115H19.4094L11.3978 13.0781L3.39249 5.11115Z" fill="#000000"/>
</svg>
